<svg id="SvgjsSvg1001" width="288" height="288" xmlns="http://www.w3.org/2000/svg" version="1.1" xmlns:xlink="http://www.w3.org/1999/xlink" xmlns:svgjs="http://svgjs.com/svgjs"><defs id="SvgjsDefs1002"></defs><g id="SvgjsG1008"><svg xmlns="http://www.w3.org/2000/svg" viewBox="0 0 230 53" width="288" height="288"><path fill="#182872" d="M0 0 C4.186875 -0.0825 8.37375 -0.165 12.6875 -0.25 C13.99936279 -0.28641602 15.31122559 -0.32283203 16.6628418 -0.36035156 C17.70609619 -0.3703418 18.74935059 -0.38033203 19.82421875 -0.390625 C20.88729248 -0.41157227 21.95036621 -0.43251953 23.0456543 -0.45410156 C26.72590581 0.1115763 28.37418479 1.41117651 31 4 C31.55859375 6.2890625 31.55859375 6.2890625 31.4375 8.625 C31.41558594 9.40101562 31.39367187 10.17703125 31.37109375 10.9765625 C31 13 31 13 29 15 C29.474375 15.350625 29.94875 15.70125 30.4375 16.0625 C32.75031144 18.93038619 32.81227322 21.3706155 33 25 C32.25433833 27.98264666 31.52240616 29.49806406 29.31152344 31.62231445 C26.28185987 33.42801698 24.21580452 33.34267648 20.703125 33.29296875 C19.07358887 33.28172974 19.07358887 33.28172974 17.41113281 33.27026367 C16.03795898 33.24295166 14.66478516 33.21563965 13.25 33.1875 C8.8775 33.125625 4.505 33.06375 0 33 C0 22.11 0 11.22 0 0 Z M9 8 C9 9.32 9 10.64 9 12 C13.29 12 17.58 12 22 12 C22 10.68 22 9.36 22 8 C17.71 8 13.42 8 9 8 Z M9 20 C9 21.65 9 23.3 9 25 C13.62 25 18.24 25 23 25 C22.67 23.35 22.34 21.7 22 20 C17.71 20 13.42 20 9 20 Z " transform="translate(98 10)" class="colorFFF svgShape"></path><path fill="#182872" d="M0 0 C11 0 11 0 13.4296875 1.72265625 C14.14511719 2.88087891 14.14511719 2.88087891 14.875 4.0625 C15.40996094 4.8771875 15.94492188 5.691875 16.49609375 6.53125 C16.99238281 7.3459375 17.48867187 8.160625 18 9 C18.96919938 10.36131821 19.94724757 11.71641871 20.9375 13.0625 C21.618125 14.031875 22.29875 15.00125 23 16 C23.33 10.72 23.66 5.44 24 0 C26.97 0 29.94 0 33 0 C33 10.89 33 21.78 33 33 C24 33 24 33 21.80078125 31.37939453 C21.30964844 30.63802246 20.81851563 29.89665039 20.3125 29.1328125 C19.75949219 28.32972656 19.20648438 27.52664062 18.63671875 26.69921875 C18.09660156 25.84972656 17.55648437 25.00023438 17 24.125 C16.42894531 23.28324219 15.85789063 22.44148438 15.26953125 21.57421875 C11.45755328 15.91510657 11.45755328 15.91510657 10 13 C9.67 19.6 9.34 26.2 9 33 C6.03 33 3.06 33 0 33 C0 22.11 0 11.22 0 0 Z " transform="translate(135 10)" class="colorFFF svgShape"></path><path fill="#182872" d="M0 0 C6.31125 -0.061875 6.31125 -0.061875 12.75 -0.125 C14.0709668 -0.14320801 15.39193359 -0.16141602 16.75292969 -0.18017578 C17.79868164 -0.1851709 18.84443359 -0.19016602 19.921875 -0.1953125 C20.99018555 -0.20578613 22.05849609 -0.21625977 23.15917969 -0.22705078 C26.03977475 0.00317897 27.62775649 0.38086027 30 2 C32.62574924 6.52715386 33.5610098 9.95005442 32.64453125 15.13671875 C31.54242066 18.32282026 29.62208859 19.98769946 27 22 C23.32565779 23.339168 19.62001079 23.09833343 15.75 23.0625 C14.48671875 23.05347656 13.2234375 23.04445313 11.921875 23.03515625 C10.95765625 23.02355469 9.9934375 23.01195313 9 23 C9 26.3 9 29.6 9 33 C6.03 33 3.06 33 0 33 C0 22.11 0 11.22 0 0 Z M9 8 C9 10.31 9 12.62 9 15 C10.77074917 15.02705729 12.54161711 15.04642195 14.3125 15.0625 C15.29863281 15.07410156 16.28476563 15.08570313 17.30078125 15.09765625 C20.09963849 15.12329862 20.09963849 15.12329862 23 14 C23.042721 12.33388095 23.04063832 10.66617115 23 9 C21.88873341 7.66098208 21.88873341 7.66098208 19.05859375 7.90234375 C17.86363281 7.91394531 16.66867188 7.92554688 15.4375 7.9375 C14.23996094 7.94652344 13.04242188 7.95554687 11.80859375 7.96484375 C10.41833984 7.98224609 10.41833984 7.98224609 9 8 Z " transform="translate(61 10)" class="colorFFF svgShape"></path><path fill="#182872" d="M0 0 C6.68442585 2.97085593 11.15316831 7.89265897 15 14 C15 14.66 15 15.32 15 16 C9.39 16 3.78 16 -2 16 C-2 9.43646084 -1.6957905 5.93526674 0 0 Z " transform="translate(28 33)" class="colorFFF svgShape"></path><path fill="#182872" d="M0 0 C6.56353916 0 10.06473326 0.3042095 16 2 C14.48451505 5.54963854 12.39924001 7.89958735 9.6875 10.625 C8.54861328 11.78902344 8.54861328 11.78902344 7.38671875 12.9765625 C5 15 5 15 0 17 C0 11.39 0 5.78 0 0 Z " transform="translate(4 26)" class="colorFFF svgShape"></path><path fill="#182872" d="M0 0 C0 5.61 0 11.22 0 17 C-6.56353916 17 -10.06473326 16.6957905 -16 15 C-14.47925254 11.39952764 -12.33755655 9.09993237 -9.5625 6.375 C-8.78003906 5.59898438 -7.99757813 4.82296875 -7.19140625 4.0234375 C-2.83397683 0 -2.83397683 0 0 0 Z " transform="translate(49 10)" class="colorFFF svgShape"></path><path fill="#182872" d="M0 0 C5.61 0 11.22 0 17 0 C17 6.56353916 16.6957905 10.06473326 15 16 C8.02272979 12.5113649 2.86561592 7.1640398 0 0 Z " transform="translate(10 4)" class="colorFFF svgShape"></path><path fill="#182872" d="M0 0 C1.12067256 7.11778518 0.7958955 13.02420757 -1 20 C-4.45201639 18.52278578 -6.64961936 16.56205999 -9.25 13.875 C-9.95640625 13.15054688 -10.6628125 12.42609375 -11.390625 11.6796875 C-11.92171875 11.12539063 -12.4528125 10.57109375 -13 10 C-11.54845769 6.37114422 -9.7599362 4.84567327 -6.5 2.75 C-5.30890625 1.96882813 -5.30890625 1.96882813 -4.09375 1.171875 C-2 0 -2 0 0 0 Z " transform="translate(24 33)" class="colorFFF svgShape"></path><path fill="#182872" d="M0 0 C3.36165806 1.41043479 5.09505232 3.01526034 7.25 5.9375 C7.77078125 6.62714844 8.2915625 7.31679688 8.828125 8.02734375 C10 10 10 10 10 13 C7.04160645 13.02689449 4.08345573 13.04678741 1.125 13.0625 C-0.13763672 13.07506836 -0.13763672 13.07506836 -1.42578125 13.08789062 C-2.23144531 13.09111328 -3.03710938 13.09433594 -3.8671875 13.09765625 C-4.61081543 13.10289307 -5.35444336 13.10812988 -6.12060547 13.11352539 C-8 13 -8 13 -10 12 C-8.52278578 8.54798361 -6.56205999 6.35038064 -3.875 3.75 C-3.15054687 3.04359375 -2.42609375 2.3371875 -1.6796875 1.609375 C-1.12539062 1.07828125 -0.57109375 0.5471875 0 0 Z " transform="translate(10 11)" class="colorFFF svgShape"></path><path fill="#182872" d="M0 0 C2.95839355 -0.02689449 5.91654427 -0.04678741 8.875 -0.0625 C9.71675781 -0.07087891 10.55851562 -0.07925781 11.42578125 -0.08789062 C12.23144531 -0.09111328 13.03710938 -0.09433594 13.8671875 -0.09765625 C14.98262939 -0.10551147 14.98262939 -0.10551147 16.12060547 -0.11352539 C18 0 18 0 20 1 C18.52278578 4.45201639 16.56205999 6.64961936 13.875 9.25 C13.15054688 9.95640625 12.42609375 10.6628125 11.6796875 11.390625 C11.12539063 11.92171875 10.57109375 12.4528125 10 13 C6.37114422 11.54845769 4.84567327 9.7599362 2.75 6.5 C1.96882813 5.30890625 1.96882813 5.30890625 1.171875 4.09375 C0 2 0 2 0 0 Z " transform="translate(33 29)" class="colorFFF svgShape"></path><path fill="#182872" d="M0 0 C3.45201639 1.47721422 5.64961936 3.43794001 8.25 6.125 C8.95640625 6.84945313 9.6628125 7.57390625 10.390625 8.3203125 C11.18726563 9.15175781 11.18726563 9.15175781 12 10 C10.54845769 13.62885578 8.7599362 15.15432673 5.5 17.25 C4.7059375 17.77078125 3.911875 18.2915625 3.09375 18.828125 C1 20 1 20 -1 20 C-1.02689449 17.04160645 -1.04678741 14.08345573 -1.0625 11.125 C-1.07087891 10.28324219 -1.07925781 9.44148437 -1.08789062 8.57421875 C-1.09111328 7.76855469 -1.09433594 6.96289062 -1.09765625 6.1328125 C-1.10289307 5.38918457 -1.10812988 4.64555664 -1.11352539 3.87939453 C-1 2 -1 2 0 0 Z " transform="translate(30)" class="colorFFF svgShape"></path></svg></g></svg>